<svg width="700pt" height="700pt" version="1.1" viewBox="0 0 700 700" xmlns="http://www.w3.org/2000/svg" xmlns:xlink="http://www.w3.org/1999/xlink">
 <defs>
  <symbol id="m" overflow="visible">
   <path d="m29.312-1.75c-1.5117 0.78125-3.0898 1.3711-4.7344 1.7656-1.6367 0.40625-3.3398 0.60938-5.1094 0.60938-5.3125 0-9.5273-1.4844-12.641-4.4531-3.1055-2.9688-4.6562-7-4.6562-12.094s1.5508-9.125 4.6562-12.094c3.1133-2.9688 7.3281-4.4531 12.641-4.4531 1.7695 0 3.4727 0.19922 5.1094 0.59375 1.6445 0.39844 3.2227 0.99219 4.7344 1.7812v6.5938c-1.5312-1.0391-3.0391-1.8008-4.5156-2.2812-1.4805-0.48828-3.0391-0.73438-4.6719-0.73438-2.9375 0-5.2461 0.94531-6.9219 2.8281-1.6797 1.875-2.5156 4.4648-2.5156 7.7656 0 3.293 0.83594 5.8828 2.5156 7.7656 1.6758 1.875 3.9844 2.8125 6.9219 2.8125 1.6328 0 3.1914-0.23828 4.6719-0.71875 1.4766-0.48828 2.9844-1.2539 4.5156-2.2969z"/>
  </symbol>
  <symbol id="k" overflow="visible">
   <path d="m21.453-17.406c-0.67969-0.3125-1.3516-0.53906-2.0156-0.6875-0.65625-0.15625-1.3203-0.23438-1.9844-0.23438-1.9688 0-3.4844 0.63281-4.5469 1.8906-1.0547 1.2617-1.5781 3.0703-1.5781 5.4219v11.016h-7.6562v-23.922h7.6562v3.9219c0.97656-1.5625 2.1016-2.7031 3.375-3.4219 1.2812-0.71875 2.8125-1.0781 4.5938-1.0781 0.25 0 0.52344 0.011719 0.82812 0.03125 0.30078 0.023438 0.73438 0.070312 1.2969 0.14062z"/>
  </symbol>
  <symbol id="c" overflow="visible">
   <path d="m27.562-12.031v2.1875h-17.891c0.1875 1.793 0.83203 3.1367 1.9375 4.0312 1.1133 0.89844 2.6719 1.3438 4.6719 1.3438 1.6016 0 3.25-0.23438 4.9375-0.70312 1.6875-0.47656 3.4219-1.2031 5.2031-2.1719v5.8906c-1.8047 0.6875-3.6094 1.2031-5.4219 1.5469-1.8125 0.35156-3.6211 0.53125-5.4219 0.53125-4.3359 0-7.7031-1.0977-10.109-3.2969-2.3984-2.207-3.5938-5.2969-3.5938-9.2656 0-3.9062 1.1758-6.9727 3.5312-9.2031 2.3633-2.2383 5.6094-3.3594 9.7344-3.3594 3.7578 0 6.7695 1.1367 9.0312 3.4062 2.2578 2.2617 3.3906 5.2812 3.3906 9.0625zm-7.8594-2.5312c0-1.457-0.42969-2.6289-1.2812-3.5156-0.84375-0.89453-1.9492-1.3438-3.3125-1.3438-1.4922 0-2.6992 0.41797-3.625 1.25-0.91797 0.83594-1.4922 2.0391-1.7188 3.6094z"/>
  </symbol>
  <symbol id="a" overflow="visible">
   <path d="m14.391-10.766c-1.5938 0-2.793 0.27344-3.5938 0.8125-0.80469 0.54297-1.2031 1.3398-1.2031 2.3906 0 0.96875 0.32031 1.7305 0.96875 2.2812 0.64453 0.54297 1.5469 0.8125 2.7031 0.8125 1.4375 0 2.6445-0.51562 3.625-1.5469 0.98828-1.0312 1.4844-2.3203 1.4844-3.875v-0.875zm11.688-2.8906v13.656h-7.7031v-3.5469c-1.0312 1.4492-2.1875 2.5078-3.4688 3.1719s-2.8398 1-4.6719 1c-2.4805 0-4.4961-0.72266-6.0469-2.1719-1.543-1.4453-2.3125-3.3203-2.3125-5.625 0-2.8125 0.96094-4.8672 2.8906-6.1719 1.9375-1.3125 4.9688-1.9688 9.0938-1.9688h4.5156v-0.60938c0-1.207-0.48047-2.0938-1.4375-2.6562-0.94922-0.5625-2.4375-0.84375-4.4688-0.84375-1.6367 0-3.1562 0.16797-4.5625 0.5-1.4062 0.32422-2.7188 0.8125-3.9375 1.4688v-5.8281c1.6445-0.40625 3.2891-0.70703 4.9375-0.90625 1.6562-0.20703 3.3047-0.3125 4.9531-0.3125 4.3203 0 7.4375 0.85547 9.3438 2.5625 1.9141 1.6992 2.875 4.4609 2.875 8.2812z"/>
  </symbol>
  <symbol id="b" overflow="visible">
   <path d="m12.031-30.719v6.7969h7.875v5.4688h-7.875v10.141c0 1.1172 0.21875 1.8711 0.65625 2.2656 0.4375 0.38672 1.3125 0.57812 2.625 0.57812h3.9375v5.4688h-6.5625c-3.0234 0-5.1641-0.62891-6.4219-1.8906-1.2617-1.2578-1.8906-3.3984-1.8906-6.4219v-10.141h-3.7969v-5.4688h3.7969v-6.7969z"/>
  </symbol>
  <symbol id="j" overflow="visible">
   <path d="m19.953-20.422v-12.812h7.6875v33.234h-7.6875v-3.4531c-1.0547 1.4062-2.2148 2.4375-3.4844 3.0938-1.2734 0.65625-2.7422 0.98438-4.4062 0.98438-2.9492 0-5.3711-1.1719-7.2656-3.5156-1.8867-2.3438-2.8281-5.3594-2.8281-9.0469s0.94141-6.7031 2.8281-9.0469c1.8945-2.3438 4.3164-3.5156 7.2656-3.5156 1.6562 0 3.1172 0.33594 4.3906 1 1.2812 0.65625 2.4453 1.6836 3.5 3.0781zm-5.0469 15.484c1.6445 0 2.8945-0.59766 3.75-1.7969 0.86328-1.1953 1.2969-2.9297 1.2969-5.2031 0-2.2812-0.43359-4.0195-1.2969-5.2188-0.85547-1.1953-2.1055-1.7969-3.75-1.7969-1.625 0-2.8711 0.60156-3.7344 1.7969-0.85547 1.1992-1.2812 2.9375-1.2812 5.2188 0 2.2734 0.42578 4.0078 1.2812 5.2031 0.86328 1.1992 2.1094 1.7969 3.7344 1.7969z"/>
  </symbol>
  <symbol id="i" overflow="visible">
   <path d="m16.406-4.9375c1.6328 0 2.8828-0.59766 3.75-1.7969 0.86328-1.1953 1.2969-2.9297 1.2969-5.2031 0-2.2812-0.43359-4.0195-1.2969-5.2188-0.86719-1.1953-2.1172-1.7969-3.75-1.7969-1.6367 0-2.8906 0.60547-3.7656 1.8125-0.875 1.1992-1.3125 2.9336-1.3125 5.2031 0 2.2617 0.4375 3.9961 1.3125 5.2031 0.875 1.1992 2.1289 1.7969 3.7656 1.7969zm-5.0781-15.484c1.0508-1.3945 2.2188-2.4219 3.5-3.0781 1.2812-0.66406 2.7539-1 4.4219-1 2.9453 0 5.3672 1.1719 7.2656 3.5156 1.8945 2.3438 2.8438 5.3594 2.8438 9.0469s-0.94922 6.7031-2.8438 9.0469c-1.8984 2.3438-4.3203 3.5156-7.2656 3.5156-1.668 0-3.1406-0.33594-4.4219-1s-2.4492-1.6914-3.5-3.0781v3.4531h-7.6562v-33.234h7.6562z"/>
  </symbol>
  <symbol id="h" overflow="visible">
   <path d="m0.53125-23.922h7.6562l6.4219 16.234 5.4688-16.234h7.6562l-10.062 26.188c-1.0117 2.6641-2.1953 4.5234-3.5469 5.5781-1.3438 1.0625-3.1211 1.5938-5.3281 1.5938h-4.4219v-5.0156h2.3906c1.3008 0 2.2422-0.21094 2.8281-0.625 0.59375-0.40625 1.0547-1.1484 1.3906-2.2188l0.20312-0.65625z"/>
  </symbol>
  <symbol id="g" overflow="visible">
   <path d="m4.0156-31.891h9.1875l11.594 21.875v-21.875h7.7969v31.891h-9.1875l-11.594-21.875v21.875h-7.7969z"/>
  </symbol>
  <symbol id="f" overflow="visible">
   <path d="m3.6719-23.922h7.6562v23.922h-7.6562zm0-9.3125h7.6562v6.2344h-7.6562z"/>
  </symbol>
  <symbol id="e" overflow="visible">
   <path d="m27.734-14.562v14.562h-7.7031v-11.109c0-2.0938-0.046875-3.5312-0.14062-4.3125-0.085937-0.78125-0.24219-1.3594-0.46875-1.7344-0.30469-0.5-0.71094-0.88281-1.2188-1.1562-0.51172-0.28125-1.0938-0.42188-1.75-0.42188-1.5938 0-2.8516 0.61719-3.7656 1.8438-0.90625 1.2305-1.3594 2.9375-1.3594 5.125v11.766h-7.6562v-33.234h7.6562v12.812c1.1445-1.3945 2.3633-2.4219 3.6562-3.0781 1.3008-0.66406 2.7383-1 4.3125-1 2.7578 0 4.8516 0.85156 6.2812 2.5469 1.4375 1.6875 2.1562 4.1523 2.1562 7.3906z"/>
  </symbol>
  <symbol id="d" overflow="visible">
   <path d="m27.734-14.562v14.562h-7.7031v-11.156c0-2.0625-0.046875-3.4844-0.14062-4.2656-0.085937-0.78125-0.24219-1.3594-0.46875-1.7344-0.30469-0.5-0.71094-0.88281-1.2188-1.1562-0.51172-0.28125-1.0938-0.42188-1.75-0.42188-1.5938 0-2.8516 0.61719-3.7656 1.8438-0.90625 1.2305-1.3594 2.9375-1.3594 5.125v11.766h-7.6562v-23.922h7.6562v3.5c1.1445-1.3945 2.3633-2.4219 3.6562-3.0781 1.3008-0.66406 2.7383-1 4.3125-1 2.7578 0 4.8516 0.85156 6.2812 2.5469 1.4375 1.6875 2.1562 4.1523 2.1562 7.3906z"/>
  </symbol>
  <symbol id="l" overflow="visible">
   <path d="m0.21875-31.891h29.391v6.2188h-10.578v25.672h-8.2188v-25.672h-10.594z"/>
  </symbol>
 </defs>
 <g>
  <path d="m349.13 113.75h-26.25c-2.7891 0-5.4102 1.3281-7.0586 3.5742l-16.629 22.676h-20.801c-2.7734-7.8477-9.1055-13.914-17.062-16.352-7.9609-2.4336-16.602-0.95313-23.297 3.9961-6.6914 4.9531-10.637 12.781-10.637 21.105s3.9453 16.152 10.637 21.105c6.6953 4.9492 15.336 6.4297 23.297 3.9961 7.957-2.4375 14.289-8.5039 17.062-16.352h25.234c2.7891 0 5.4102-1.3281 7.0586-3.5742l16.629-22.676h21.816z"/>
  <path d="m349.13 192.5h-35c-3.0742 0-5.9219 1.6094-7.5039 4.2461l-18.457 30.754h-44.777c-2.7734-7.8477-9.1055-13.914-17.062-16.352-7.9609-2.4336-16.602-0.95313-23.297 3.9961-6.6914 4.9531-10.637 12.781-10.637 21.105s3.9453 16.152 10.637 21.105c6.6953 4.9492 15.336 6.4297 23.297 3.9961 7.957-2.4375 14.289-8.5039 17.062-16.352h49.734c3.0742 0 5.9219-1.6094 7.5039-4.2461l18.457-30.754h30.043z"/>
  <path d="m227.5 411.25c-0.019531 8.3164 3.9102 16.148 10.594 21.102 6.6797 4.9492 15.316 6.4375 23.266 4 7.9531-2.4375 14.273-8.5078 17.031-16.352h20.801l16.629 22.676c1.6484 2.2461 4.2695 3.5742 7.0586 3.5742h26.25v-17.5h-21.816l-16.629-22.676c-1.6484-2.2461-4.2695-3.5742-7.0586-3.5742h-25.234c-2.7578-7.8438-9.0781-13.914-17.031-16.352-7.9492-2.4375-16.586-0.94922-23.266 4-6.6836 4.9531-10.613 12.785-10.594 21.102z"/>
  <path d="m349.13 341.25h-30.797l-18.371-22.969c-1.6641-2.0742-4.1797-3.2812-6.8359-3.2812h-49.734c-2.7734-7.8477-9.1055-13.914-17.062-16.352-7.9609-2.4336-16.602-0.95313-23.297 3.9961-6.6914 4.9531-10.637 12.781-10.637 21.105s3.9453 16.152 10.637 21.105c6.6953 4.9492 15.336 6.4297 23.297 3.9961 7.957-2.4375 14.289-8.5039 17.062-16.352h45.527l18.371 22.969h0.003907c1.6641 2.0742 4.1758 3.2812 6.8359 3.2812h35z"/>
  <path d="m306.25 271.25h17.5v17.5h-17.5z"/>
  <path d="m262.5 350h17.5v17.5h-17.5z"/>
  <path d="m271.25 183.75h17.5v17.5h-17.5z"/>
  <path d="m350 551.25c58.938-0.03125 116.26-19.25 163.31-54.746 47.051-35.5 81.266-85.344 97.473-142.01 16.211-56.664 13.535-117.07-7.6211-172.07l-16.32 6.2969c10.156 26.379 15.805 54.277 16.711 82.531h-26.051v17.5h26.027c-1.2734 38.594-11.398 76.375-29.594 110.43l-22.539-13.016-8.75 15.16 22.496 12.988c-20.496 32.695-48.129 60.328-80.824 80.824l-12.988-22.496-15.16 8.75 13.012 22.539h0.003906c-34.059 18.195-71.84 28.32-110.43 29.594v-26.027h-17.5v26.027c-38.594-1.2734-76.375-11.398-110.43-29.594l13.012-22.539-15.16-8.75-12.984 22.496c-32.695-20.496-60.328-48.129-80.824-80.824l22.496-12.988-8.75-15.16-22.539 13.016c-18.195-34.059-28.32-71.84-29.594-110.43h26.027v-17.5h-26.027c1.2734-38.594 11.398-76.375 29.594-110.43l22.539 13.016 8.75-15.16-22.496-12.988c20.496-32.695 48.129-60.328 80.824-80.824l12.988 22.496 15.16-8.75-13.016-22.539c34.059-18.195 71.84-28.32 110.43-29.594v26.027h17.5v-26.008c38.594 1.2695 76.391 11.355 110.49 29.48l-13.066 22.633 15.16 8.75 13.031-22.574v-0.003906c19.438 12.152 37.141 26.883 52.629 43.781l-25.664 19.398 74.082 29.352-9.4961-78.176-24.922 18.836 0.003906 0.007812c-40.594-44.824-95.004-74.793-154.58-85.152-59.578-10.355-120.91-0.50391-174.25 27.992-53.336 28.492-95.621 73.996-120.14 129.28-24.512 55.281-29.848 117.17-15.156 175.83s48.562 110.73 96.238 147.93c47.676 37.203 106.41 57.406 166.89 57.398z"/>
  <path d="m532.88 232.5c-0.54297-12.277-4.8477-24.094-12.332-33.844-7.4844-9.7461-17.789-16.957-29.508-20.656-6.8164 4.0781-11.066 11.363-11.266 19.301h-18.473c0.16406-8.5312 2.9023-16.82 7.8555-23.77 4.9531-6.9531 11.895-12.246 19.91-15.184-7.6758-25.629-34.727-44.598-67.02-44.598-21.078-0.32812-41.273 8.4453-55.418 24.074v149.3c7.3125-0.44922 14.324-3.0703 20.137-7.5312 5.8125-4.4609 10.16-10.555 12.484-17.504l0.56641-1.707 17.516 5.8438-0.56641 1.7031h0.003906c-3.5469 10.629-10.242 19.922-19.199 26.648-8.957 6.7305-19.75 10.574-30.941 11.02v116.58c14.145 15.633 34.34 24.406 55.418 24.078 35.848 0 65.332-23.34 68.906-53.258-8.3555-2.7461-15.648-8.0195-20.875-15.086-5.2266-7.0703-8.1289-15.59-8.3086-24.379h18.473c0.10156 6.7227 3.1719 13.055 8.3828 17.301 12.25-3.3672 23.125-10.516 31.074-20.43 7.9453-9.9141 12.559-22.082 13.18-34.773-0.25-16.09-7.5117-31.27-19.883-41.562 12.371-10.293 19.633-25.473 19.883-41.562z"/>
  <use x="70" y="691.25" xlink:href="#m"/>
  <use x="102.109375" y="691.25" xlink:href="#k"/>
  <use x="123.683594" y="691.25" xlink:href="#c"/>
  <use x="153.355469" y="691.25" xlink:href="#a"/>
  <use x="182.878906" y="691.25" xlink:href="#b"/>
  <use x="203.792969" y="691.25" xlink:href="#c"/>
  <use x="233.464844" y="691.25" xlink:href="#j"/>
  <use x="280.011719" y="691.25" xlink:href="#i"/>
  <use x="311.328125" y="691.25" xlink:href="#h"/>
  <use x="355.078125" y="691.25" xlink:href="#g"/>
  <use x="391.695312" y="691.25" xlink:href="#f"/>
  <use x="406.691406" y="691.25" xlink:href="#b"/>
  <use x="427.605469" y="691.25" xlink:href="#e"/>
  <use x="458.75" y="691.25" xlink:href="#f"/>
  <use x="473.746094" y="691.25" xlink:href="#d"/>
  <use x="504.894531" y="691.25" xlink:href="#a"/>
  <use x="534.417969" y="691.25" xlink:href="#d"/>
  <use x="580.792969" y="691.25" xlink:href="#l"/>
  <use x="610.636719" y="691.25" xlink:href="#a"/>
  <use x="640.160156" y="691.25" xlink:href="#b"/>
  <use x="661.074219" y="691.25" xlink:href="#a"/>
  <use x="690.597656" y="691.25" xlink:href="#e"/>
 </g>
</svg>